<svg xmlns="http://www.w3.org/2000/svg" viewBox="0 0 512 512">
  <rect width="512" height="512" rx="80" fill="#1e1e22"/>
  <rect x="16" y="16" width="480" height="480" rx="68" fill="none" stroke="#c9a84c" stroke-width="3" opacity="0.3"/>
  <!-- Left sword -->
  <g transform="translate(256,256) rotate(-30)">
    <rect x="-6" y="-140" width="12" height="200" rx="2" fill="#c9a84c"/>
    <rect x="-6" y="-150" width="12" height="20" rx="2" fill="#e8c96a"/>
    <rect x="-28" y="55" width="56" height="10" rx="3" fill="#c9a84c"/>
    <rect x="-4" y="65" width="8" height="30" rx="2" fill="#8b6530"/>
    <circle cx="0" cy="98" r="6" fill="#c9a84c"/>
  </g>
  <!-- Right sword -->
  <g transform="translate(256,256) rotate(30)">
    <rect x="-6" y="-140" width="12" height="200" rx="2" fill="#c9a84c"/>
    <rect x="-6" y="-150" width="12" height="20" rx="2" fill="#e8c96a"/>
    <rect x="-28" y="55" width="56" height="10" rx="3" fill="#c9a84c"/>
    <rect x="-4" y="65" width="8" height="30" rx="2" fill="#8b6530"/>
    <circle cx="0" cy="98" r="6" fill="#c9a84c"/>
  </g>
  <!-- Shield shape behind -->
  <path d="M256,340 Q256,380 256,400 Q220,380 200,340 Q190,310 200,280 L256,260 L312,280 Q322,310 312,340 Q292,380 256,400Z" fill="none" stroke="#c9a84c" stroke-width="3" opacity="0.5"/>
  <!-- Text -->
  <text x="256" y="460" text-anchor="middle" font-family="serif" font-size="36" font-weight="bold" fill="#c9a84c" letter-spacing="6">SCOUT</text>
</svg>
